<?xml version="1.0" encoding="utf-8"?>
<!-- Generator: Adobe Illustrator 22.1.0, SVG Export Plug-In . SVG Version: 6.00 Build 0)  -->
<svg version="1.1" id="レイヤー_1" xmlns="http://www.w3.org/2000/svg" xmlns:xlink="http://www.w3.org/1999/xlink" x="0px"
	 y="0px" viewBox="0 0 126.9 192.5" style="enable-background:new 0 0 126.9 192.5;" xml:space="preserve">
<style type="text/css">
	.st0{fill:#FFFFFF;stroke:#000000;stroke-width:10.41;stroke-miterlimit:10;}
	.st1{fill:none;stroke:#000000;stroke-width:8.01;stroke-miterlimit:10;}
</style>
<title>timer</title>
<g id="レイヤー_2_1_">
	<g id="main">
		<circle class="st0" cx="63.5" cy="90.7" r="58.3"/>
		<circle class="st1" cx="64.3" cy="17.8" r="13.8"/>
		<g>
			<path d="M20.3,167.3c0.1,0,0.2,0,0.2,0c0,0,0,0.1,0,0.2v1.6c0,0.1,0,0.2,0,0.2c0,0-0.1,0-0.2,0l-2.5-0.1h-1.3
				c-0.1,1-0.3,1.8-0.4,2.6h1.6c0.2,0,0.4,0,0.5-0.1c0.2-0.1,0.3-0.1,0.3-0.1c0.1,0,0.4,0.2,0.8,0.6c0.5,0.4,0.7,0.7,0.7,0.9
				c0,0.1-0.1,0.3-0.2,0.5c-0.1,0.2-0.2,0.4-0.2,0.7c-0.4,3-1.1,5.5-2.2,7.5c-0.9,1.7-2.2,3.3-3.7,4.6c-0.3,0.2-0.5,0.3-0.5,0.3
				c-0.1,0-0.3-0.2-0.5-0.5c-0.3-0.4-0.7-0.8-1.1-1.1c2-1.6,3.6-3.4,4.5-5.6c-0.5-0.6-1-1.2-1.6-1.6c-0.1-0.1-0.2-0.2-0.2-0.3
				c0-0.1,0-0.1,0.1-0.2l0.8-1.1c0.1-0.1,0.2-0.2,0.2-0.2c0.1,0,0.1,0,0.2,0.1c0.4,0.3,0.8,0.7,1.2,1.1c0.3-1.2,0.6-2.3,0.7-3.5h-2
				c-0.5,1.6-1.4,3.2-2.4,4.6c-0.2,0.2-0.3,0.3-0.4,0.3c-0.1,0-0.2-0.1-0.3-0.3c-0.3-0.6-0.6-1.1-1-1.5c1.6-1.8,2.6-4.4,3-7.7
				l-2.2,0.1c-0.1,0-0.2,0-0.2,0c0,0,0-0.1,0-0.2v-1.6c0-0.1,0-0.2,0-0.2c0,0,0.1,0,0.2,0l2.5,0h3.2L20.3,167.3z M18,184.7
				c2.8-0.6,5.3-1.5,7.3-2.8c-0.1-0.2-0.2-0.5-0.2-0.7c-0.3-0.7-0.5-1.5-0.7-2.4l-0.9,0.1c-0.8,0.1-1.6,0.2-2.2,0.2
				c-0.1,0-0.3,0-0.5,0.1c-0.1,0-0.2,0-0.2,0c0,0-0.1,0-0.1,0c-0.1,0-0.2-0.1-0.2-0.3l-0.1-1.5c0,0,0-0.1,0-0.1
				c0-0.1,0.1-0.2,0.3-0.2c0.3,0,1.3-0.1,2.9-0.2l0.7-0.1c-0.1-0.4-0.1-1-0.2-1.8h-0.1c-0.8,0.1-1.5,0.1-2.1,0.2
				c-0.1,0-0.3,0-0.5,0.1c-0.1,0-0.2,0-0.2,0c-0.1,0-0.1,0-0.1,0c-0.1,0-0.1-0.1-0.2-0.3l-0.1-1.5c0,0,0-0.1,0-0.1
				c0-0.1,0.1-0.2,0.3-0.2c0.4,0,1.3-0.1,2.7-0.2c-0.1-0.7-0.1-1.3-0.1-1.7l-0.2,0c-1.2,0.1-2.1,0.2-2.8,0.2c-0.1,0-0.1,0-0.1,0
				c-0.1,0-0.2-0.1-0.2-0.3l-0.1-1.5c0,0,0-0.1,0-0.1c0-0.1,0.1-0.1,0.3-0.2c0,0,0.2,0,0.4,0c0.7,0,1.5-0.1,2.5-0.2h0.2v-0.4
				c0-1.1-0.1-2-0.2-2.9c0.8,0,1.6,0,2.4,0.1c0.3,0,0.4,0.1,0.4,0.3c0,0.1,0,0.2-0.1,0.3c-0.1,0.1-0.1,0.2-0.1,0.2
				c-0.1,0.2-0.1,0.7-0.1,1.4c0,0.2,0,0.5,0,0.8l2.5-0.2l1-0.1c-0.7-0.7-1.3-1.2-2-1.5c-0.1-0.1-0.2-0.1-0.2-0.2
				c0-0.1,0.1-0.1,0.2-0.2l1-0.8c0.1-0.1,0.2-0.2,0.3-0.2c0,0,0.1,0,0.2,0c0.7,0.3,1.4,0.8,2.2,1.5c0.1,0.1,0.1,0.1,0.1,0.2
				c0,0.1-0.1,0.1-0.2,0.2l-1.1,0.9l1.4-0.2l0.1,0c0.1,0,0.2,0.1,0.2,0.3l0.1,1.5c0,0.1,0,0.2,0,0.2c0,0-0.1,0-0.2,0
				c0,0-0.2,0-0.4,0c-0.7,0-1.6,0.1-2.5,0.2l-2.5,0.2c0,0.4,0.1,1,0.1,1.7l2.1-0.2c0.8-0.1,1.5-0.1,2.1-0.2c0.1,0,0.3,0,0.5-0.1
				c0.1,0,0.2,0,0.2,0c0,0,0.1,0,0.1,0c0.1,0,0.2,0.1,0.2,0.2l0.1,1.5c0,0,0,0.1,0,0.1c0,0.1-0.1,0.2-0.3,0.2
				c-0.2,0-1.2,0.1-2.8,0.2l-2,0.2c0.1,0.8,0.2,1.4,0.2,1.8l2.7-0.3c0.8-0.1,1.6-0.2,2.2-0.2c0.1,0,0.2,0,0.5-0.1c0.1,0,0.2,0,0.2,0
				c0.1,0,0.1,0,0.1,0c0.1,0,0.2,0.1,0.2,0.3l0.1,1.5c0,0,0,0.1,0,0.1c0,0.1-0.1,0.2-0.2,0.2c-0.2,0-1.2,0.1-3,0.3l-2.4,0.2
				c0.1,0.5,0.3,1.1,0.5,1.7c0,0.1,0.1,0.2,0.1,0.3c0.4-0.3,0.8-0.6,1.2-1.1c0.3-0.3,0.5-0.7,0.7-1c0.7,0.4,1.3,0.7,1.8,1
				c0.2,0.1,0.3,0.2,0.3,0.4c0,0.1-0.1,0.2-0.3,0.3c-0.2,0.1-0.4,0.2-0.7,0.6c-0.6,0.6-1.3,1.2-2.1,1.8c0.7,1.2,1.3,1.8,1.9,1.8
				c0.4,0,0.7-0.9,0.8-2.8c0.3,0.3,0.8,0.6,1.5,0.8c0.3,0.1,0.5,0.3,0.5,0.4c0,0.1,0,0.3-0.1,0.6c-0.2,1.3-0.5,2.2-0.8,2.7
				c-0.3,0.5-0.8,0.7-1.3,0.7c-1.5,0-2.9-1-4.1-3c-1.8,1.1-3.9,2-6.3,2.7c-0.3,0.1-0.5,0.1-0.5,0.1c-0.2,0-0.3-0.2-0.5-0.6
				C18.6,185.5,18.3,185,18,184.7z"/>
			<path d="M45.7,167.5l2.3,0.3c-0.5,3.2-0.8,5.9-0.8,8.1c0,0.8,0,1.3,0,1.7c0.4-1,0.9-2.1,1.5-3.3l1.4,1.1
				c-0.7,1.2-1.3,2.4-1.6,3.4c-0.2,0.5-0.3,1-0.4,1.5l-2.5,0c-0.3-1.5-0.5-3.1-0.5-4.7C45.1,173.7,45.3,171,45.7,167.5z M53.2,167.6
				l2.4-0.1c0.1,2.3,0.2,4.9,0.2,7.9c0,2.1-0.1,3.8-0.4,4.9c-0.2,1-0.7,1.9-1.2,2.7c-0.6,0.9-1.4,1.6-2.3,2.1
				c-0.9,0.5-2.1,1-3.6,1.4l-1.4-1.9c2.4-0.4,4.1-1.3,5.2-2.6c0.6-0.7,0.9-1.6,1.2-2.7c0.2-1,0.3-2.3,0.3-4
				C53.4,173.3,53.4,170.8,53.2,167.6z"/>
			<path d="M74,184.4c0,0.1,0,0.2,0,0.2c0,0-0.1,0-0.2,0h-1.6c-0.1,0-0.2-0.1-0.2-0.3v-1h-2.1v1.8c0,0.2-0.1,0.2-0.2,0.2h-1.7
				c-0.1,0-0.2,0-0.2,0c0,0,0-0.1,0-0.2l0-7v-5l0-5.5c0-0.1,0-0.2,0-0.2s0.1,0,0.2,0l1.9,0h2l2,0c0.1,0,0.2,0,0.2,0c0,0,0,0.1,0,0.2
				l0,4.6v5.2L74,184.4z M71.9,169.7h-2.1v4.7h2.1V169.7z M69.8,181.4h2.1v-4.9h-2.1V181.4z M78,175.3l-3.1,0c-0.1,0-0.2,0-0.2-0.1
				c0,0,0-0.1,0-0.2v-1.6c0-0.1,0-0.2,0-0.2s0.1,0,0.2,0l3.1,0h1.6V171h-1.1l-2.9,0c-0.1,0-0.2,0-0.2,0c0,0,0-0.1,0-0.2v-1.6
				c0-0.1,0-0.2,0.1-0.2c0,0,0.1,0,0.2,0l2.9,0h1.1c0-1.1-0.1-2-0.2-2.6c0.8,0,1.5,0.1,2.3,0.2c0.2,0,0.4,0.1,0.4,0.2
				c0,0.1,0,0.2-0.1,0.5c-0.1,0.2-0.1,0.7-0.1,1.7h1.5l2.9,0c0.1,0,0.2,0,0.2,0c0,0,0,0.1,0,0.2v1.6c0,0.1,0,0.2,0,0.2
				c0,0-0.1,0-0.2,0l-2.9,0h-1.5v2.3h2.4l3.1,0c0.1,0,0.2,0,0.2,0c0,0,0,0.1,0,0.2v1.6c0,0.1,0,0.2,0,0.2c0,0-0.1,0-0.2,0l-3.1,0H78
				z M78.1,179.6l-3,0c-0.1,0-0.2,0-0.2,0c0,0,0-0.1,0-0.2v-1.6c0-0.1,0-0.2,0-0.2s0.1,0,0.2,0l3,0h4.5c0-0.6-0.1-1.3-0.2-2
				c0.9,0.1,1.7,0.1,2.3,0.2c0.3,0.1,0.4,0.1,0.4,0.3c0,0.1,0,0.2-0.1,0.4c-0.1,0.1-0.1,0.5-0.1,1.2l2.3,0c0.1,0,0.2,0,0.2,0
				c0,0,0,0.1,0,0.2v1.6c0,0.1,0,0.2,0,0.2c0,0-0.1,0-0.2,0c0,0-0.1,0-0.3,0c-0.6,0-1.3,0-2,0v2.3l0,2.8c0,0.9-0.3,1.6-0.8,1.9
				c-0.5,0.3-1.5,0.5-3,0.5c-0.4,0-0.6,0-0.7-0.1c-0.1-0.1-0.1-0.3-0.2-0.6c-0.1-0.6-0.4-1.2-0.7-1.7c0.7,0.1,1.4,0.1,2.2,0.1
				c0.5,0,0.8-0.2,0.8-0.7v-4.5H78.1z M78.1,180.2c0.7,0.8,1.4,1.6,2.1,2.6c0.1,0.1,0.1,0.1,0.1,0.2c0,0.1-0.1,0.1-0.2,0.2l-1.4,1
				c-0.1,0.1-0.2,0.1-0.3,0.1c-0.1,0-0.1-0.1-0.2-0.2c-0.6-1-1.2-1.9-2-2.8c-0.1-0.1-0.1-0.1-0.1-0.2c0-0.1,0.1-0.1,0.2-0.2l1.3-0.8
				c0.1-0.1,0.2-0.1,0.3-0.1S78.1,180.2,78.1,180.2z"/>
			<path d="M103.8,167l2.3,0c0.1,0,0.2,0,0.2,0.1c0,0,0,0.1,0,0.2l0,2.2v2.8l0,2.2c0,0.1,0,0.2,0,0.2c0,0-0.1,0-0.2,0l-2.3,0h-3.7
				v7.4l0,4.9c0,0.1,0,0.2,0,0.2c0,0-0.1,0-0.2,0h-1.9c-0.1,0-0.2,0-0.2,0c0,0,0-0.1,0-0.2l0-4.9v-9.9l0-4.9c0-0.1,0-0.2,0-0.2
				c0,0,0.1,0,0.2,0l2.7,0H103.8z M104,168.7h-3.9v1.3h3.9V168.7z M104,173v-1.4h-3.9v1.4H104z M104.8,185.5h-1.6
				c-0.1,0-0.2,0-0.2,0c0,0,0-0.1,0-0.2l0-4.1v-2l0-2.8c0-0.1,0-0.2,0-0.2c0,0,0.1,0,0.2,0l2.4,0h3.1l2.4,0c0.1,0,0.2,0,0.2,0
				c0,0,0,0.1,0,0.2l0,2.5v2.3l0,4c0,0.1,0,0.2,0,0.2c0,0-0.1,0-0.2,0h-1.6c-0.1,0-0.2,0-0.2,0c0,0,0-0.1,0-0.2v-0.7H105v0.9
				c0,0.1,0,0.2,0,0.2C105,185.5,104.9,185.5,104.8,185.5z M105,177.8v1.5h4.2v-1.5H105z M105,182.6h4.2V181H105V182.6z
				 M111.5,184.5c0.6,0.1,1.2,0.1,1.9,0.1c0.4,0,0.7-0.1,0.8-0.2c0.1-0.1,0.2-0.4,0.2-0.7v-9.1h-3.7l-2.5,0c-0.1,0-0.2,0-0.2-0.1
				c0,0,0-0.1,0-0.2l0-2v-3.1l0-2c0-0.1,0-0.2,0-0.2c0,0,0.1,0,0.2,0l2.5,0h3.3l2.5,0c0.1,0,0.2,0,0.2,0.1c0,0,0,0.1,0,0.2l0,3v9.4
				l0.1,4.5c0,1-0.2,1.7-0.7,2.1c-0.3,0.2-0.6,0.4-1.1,0.5c-0.5,0.1-1.2,0.1-2.1,0.1c-0.4,0-0.6,0-0.6-0.1c-0.1-0.1-0.1-0.3-0.2-0.6
				C111.9,185.5,111.7,184.9,111.5,184.5z M114.4,168.7h-4.2v1.3h4.2V168.7z M110.2,173h4.2v-1.4h-4.2V173z"/>
		</g>
	</g>
</g>
</svg>
